<svg aria-hidden="true" style="width:0;height:0;position:absolute;overflow:hidden" xmlns="http://www.w3.org/2000/svg"><defs><symbol id="fb" viewBox="0 0 18 32"><path fill="#fff" style="fill:var(--color1,#fff)" opacity=".6" d="M17.766.007 13.338 0c-4.975 0-8.19 3.091-8.19 7.875v3.631H.696c-.385 0-.696.292-.696.653v5.261c0 .36.312.652.696.652h4.452v13.275c0 .361.312.653.696.653h5.809c.385 0 .696-.292.696-.653V18.072h5.206c.385 0 .696-.292.696-.652l.002-5.261c0-.173-.073-.339-.204-.461s-.308-.191-.493-.191h-5.207V8.429c0-1.479.376-2.23 2.433-2.23l2.983-.001c.384 0 .696-.292.696-.652V.661c0-.36-.311-.652-.695-.652z"/></symbol><symbol id="instagram" viewBox="0 0 32 32"><path d="M22 0H10C4.478 0 0 4.478 0 10v12c0 5.522 4.478 10 10 10h12c5.522 0 10-4.478 10-10V10c0-5.522-4.478-10-10-10zm7 22c0 3.86-3.14 7-7 7H10c-3.86 0-7-3.14-7-7V10c0-3.86 3.14-7 7-7h12c3.86 0 7 3.14 7 7v12z"/><path d="M16 8a8 8 0 1 0 0 16 8 8 0 0 0 0-16zm0 13c-2.756 0-5-2.244-5-5 0-2.758 2.244-5 5-5s5 2.242 5 5c0 2.756-2.244 5-5 5zM24.597 8.466a1.066 1.066 0 1 0 0-2.131 1.066 1.066 0 0 0 0 2.131z"/></symbol><symbol id="menu" viewBox="0 0 32 32"><path d="M5.333 14.667h16v2.667h-16v-2.667zm0-6.667h21.333v2.667H5.333V8zm0 16h9.647v-2.667H5.333V24z"/></symbol><symbol id="yt" viewBox="0 0 46 32"><path fill="#fff" style="fill:var(--color1,#fff)" opacity=".6" d="M36.622 0H9.599c-5.302 0-9.6 4.205-9.6 9.392v13.216c0 5.187 4.298 9.392 9.6 9.392h27.023c5.302 0 9.6-4.205 9.6-9.392V9.392c0-5.187-4.298-9.392-9.6-9.392zM30.13 16.643l-12.639 5.898a.507.507 0 0 1-.726-.448V9.929c0-.37.399-.61.737-.443l12.639 6.266a.492.492 0 0 1-.011.891z"/></symbol><symbol id="prev" viewBox="0 0 82 32"><path d="M.586 14.586a2 2 0 0 0 0 2.828l12.728 12.728a2 2 0 1 0 2.828-2.828L4.828 16 16.142 4.686a2 2 0 1 0-2.828-2.828L.586 14.586zM82 14H2v4h80v-4z"/></symbol><symbol id="next" viewBox="0 0 82 32"><path d="M81.414 17.414a2 2 0 0 0 0-2.828L68.686 1.858a2 2 0 1 0-2.828 2.828L77.172 16 65.858 27.314a2 2 0 1 0 2.828 2.828l12.728-12.728zM0 18h80v-4H0v4z"/></symbol><symbol id="stars" viewBox="0 0 307 32"><path d="m17.333 0-5.358 10.537-11.976 1.68 8.667 8.206L6.617 32l10.716-5.463L28.049 32 26 20.423l8.667-8.194-11.976-1.691L17.333.001zM85.333 0l-5.358 10.537-11.976 1.68 8.667 8.206L74.617 32l10.716-5.463L96.049 32 94 20.423l8.667-8.194-11.976-1.691L85.333.001zM153.333 0l-5.357 10.537L136 12.217l8.667 8.206L142.618 32l10.716-5.463L164.05 32l-2.049-11.577 8.667-8.194-11.976-1.691L153.335.001zM221.333 0l-5.357 10.537L204 12.217l8.667 8.206L210.618 32l10.716-5.463L232.05 32l-2.049-11.577 8.667-8.194-11.976-1.691L221.335.001zM289.333 0l-5.357 10.537L272 12.217l8.667 8.206L278.618 32l10.716-5.463L300.05 32l-2.049-11.577 8.667-8.194-11.976-1.691L289.335.001z"/></symbol><symbol id="menu" viewBox="0 0 32 32"><path d="M5.333 14.667h16v2.667h-16v-2.667zm0-6.667h21.333v2.667H5.333V8zm0 16h9.647v-2.667H5.333V24z"/></symbol><symbol id="vk" viewBox="0 0 59 32"><path fill="#fff" style="fill:var(--color1,#fff)" opacity=".6" d="M59.113 28.899a3.864 3.864 0 0 0-.201-.365c-1.031-1.752-3.001-3.904-5.91-6.454l-.062-.058-.031-.029-.031-.029h-.031c-1.32-1.188-2.156-1.986-2.506-2.395-.641-.779-.784-1.567-.434-2.366.247-.603 1.176-1.878 2.785-3.825a219.627 219.627 0 0 0 2.011-2.482c3.569-4.478 5.116-7.339 4.641-8.585l-.184-.291c-.124-.175-.444-.336-.959-.482-.516-.146-1.176-.17-1.981-.073l-8.911.058c-.144-.048-.35-.044-.619.015l-.402.088-.155.073-.123.088c-.103.058-.216.16-.34.306s-.226.316-.309.511a46.471 46.471 0 0 1-3.311 6.57c-.763 1.207-1.464 2.253-2.104 3.139s-1.176 1.538-1.608 1.956c-.434.419-.825.754-1.176 1.007s-.618.361-.804.321a22.394 22.394 0 0 1-.527-.117c-.289-.175-.521-.414-.696-.715s-.294-.681-.356-1.139c-.062-.458-.098-.852-.108-1.183s-.005-.798.016-1.402c.022-.604.031-1.012.031-1.226 0-.74.015-1.543.046-2.409s.056-1.553.078-2.058c.021-.506.031-1.042.031-1.606s-.036-1.007-.108-1.329c-.071-.321-.18-.632-.324-.935s-.356-.535-.634-.701a3.687 3.687 0 0 0-1.036-.394c-1.093-.234-2.486-.36-4.178-.379-3.837-.039-6.302.195-7.395.701a4.15 4.15 0 0 0-1.176.876c-.371.428-.423.662-.155.701 1.238.175 2.114.594 2.63 1.256l.186.351c.145.253.289.701.433 1.343s.237 1.353.278 2.131c.103 1.421.103 2.638 0 3.65s-.201 1.801-.294 2.365c-.093.565-.232 1.022-.418 1.372s-.309.565-.372.642a.514.514 0 0 1-.154.146c-.268.097-.547.146-.836.146s-.64-.136-1.052-.409c-.412-.273-.84-.647-1.284-1.124s-.944-1.144-1.501-2a34.526 34.526 0 0 1-1.733-3.037l-.495-.847c-.309-.545-.732-1.338-1.268-2.38s-1.011-2.049-1.423-3.023c-.165-.409-.412-.72-.742-.934l-.155-.088c-.103-.078-.268-.16-.495-.248s-.464-.151-.712-.19l-8.478.058c-.866 0-1.454.185-1.764.555l-.124.175c-.062.097-.093.253-.093.467s.062.477.186.788C1.425 6.192 2.771 8.84 4.225 11.39s2.718 4.605 3.79 6.161c1.073 1.558 2.166 3.028 3.28 4.41s1.851 2.268 2.212 2.657c.361.39.645.681.851.876l.774.701c.495.467 1.222 1.027 2.181 1.679s2.022 1.295 3.187 1.928c1.166.632 2.522 1.148 4.069 1.547s3.053.56 4.517.482h3.558c.722-.059 1.269-.273 1.64-.642l.123-.146c.083-.116.16-.297.232-.539s.108-.512.108-.803c-.021-.837.046-1.591.201-2.263s.33-1.177.527-1.518c.197-.341.418-.628.665-.861s.424-.375.527-.424c.103-.049.185-.082.247-.102.495-.156 1.078-.005 1.749.453s1.299 1.022 1.888 1.694c.588.672 1.294 1.426 2.119 2.263s1.547 1.46 2.166 1.869l.618.35c.413.234.95.448 1.61.643.659.195 1.236.243 1.732.146l7.921-.117c.784 0 1.393-.122 1.826-.365s.691-.512.773-.803c.083-.292.087-.623.016-.993-.073-.369-.146-.628-.218-.774z"/></symbol><symbol id="close" viewBox="0 0 32 32"><path d="M24 9.4 22.6 8 16 14.6 9.4 8 8 9.4l6.6 6.6L8 22.6 9.4 24l6.6-6.6 6.6 6.6 1.4-1.4-6.6-6.6L24 9.4z"/></symbol></defs></svg>