<svg aria-hidden="true" style="position: absolute; width: 0; height: 0; overflow: hidden;" version="1.1"
    xmlns="http://www.w3.org/2000/svg" xmlns:xlink="http://www.w3.org/1999/xlink">
    <defs>
        <symbol id="fb" viewBox="0 0 18 32">
            <path fill="#fff" style="fill: var(--color1, #fff)" opacity="0.6"
                d="M17.766 0.007l-4.428-0.007c-4.975 0-8.19 3.091-8.19 7.875v3.631h-4.452c-0.385 0-0.696 0.292-0.696 0.653v5.261c0 0.36 0.312 0.652 0.696 0.652h4.452v13.275c0 0.361 0.312 0.653 0.696 0.653h5.809c0.385 0 0.696-0.292 0.696-0.653v-13.275h5.206c0.385 0 0.696-0.292 0.696-0.652l0.002-5.261c0-0.173-0.073-0.339-0.204-0.461s-0.308-0.191-0.493-0.191h-5.207v-3.078c0-1.479 0.376-2.23 2.433-2.23l2.983-0.001c0.384 0 0.696-0.292 0.696-0.652v-4.885c0-0.36-0.311-0.652-0.695-0.652z">
            </path>
        </symbol>
        <symbol id="instagram" viewBox="0 0 32 32">
            <path
                d="M22 0h-12c-5.522 0-10 4.478-10 10v12c0 5.522 4.478 10 10 10h12c5.522 0 10-4.478 10-10v-12c0-5.522-4.478-10-10-10zM29 22c0 3.86-3.14 7-7 7h-12c-3.86 0-7-3.14-7-7v-12c0-3.86 3.14-7 7-7h12c3.86 0 7 3.14 7 7v12z">
            </path>
            <path
                d="M16 8c-4.418 0-8 3.582-8 8s3.582 8 8 8c4.418 0 8-3.582 8-8s-3.582-8-8-8zM16 21c-2.756 0-5-2.244-5-5 0-2.758 2.244-5 5-5s5 2.242 5 5c0 2.756-2.244 5-5 5z">
            </path>
            <path
                d="M24.597 8.466c0.589 0 1.066-0.477 1.066-1.066s-0.477-1.066-1.066-1.066c-0.589 0-1.066 0.477-1.066 1.066s0.477 1.066 1.066 1.066z">
            </path>
        </symbol>
        <symbol id="menu" viewBox="0 0 32 32">
            <path
                d="M5.333 14.667h16v2.667h-16v-2.667zM5.333 8h21.333v2.667h-21.333v-2.667zM5.333 24h9.647v-2.667h-9.647v2.667z">
            </path>
        </symbol>
        <symbol id="yt" viewBox="0 0 46 32">
            <path fill="#fff" style="fill: var(--color1, #fff)" opacity="0.6"
                d="M36.622 0h-27.023c-5.302 0-9.6 4.205-9.6 9.392v13.216c0 5.187 4.298 9.392 9.6 9.392h27.023c5.302 0 9.6-4.205 9.6-9.392v-13.216c0-5.187-4.298-9.392-9.6-9.392zM30.13 16.643l-12.639 5.898c-0.337 0.157-0.726-0.083-0.726-0.448v-12.164c0-0.37 0.399-0.61 0.737-0.443l12.639 6.266c0.376 0.186 0.369 0.714-0.011 0.891z">
            </path>
        </symbol>
        <symbol id="prev" viewBox="0 0 82 32">
            <path
                d="M0.586 14.586c-0.781 0.781-0.781 2.047 0 2.828l12.728 12.728c0.781 0.781 2.047 0.781 2.828 0s0.781-2.047 0-2.828l-11.314-11.314 11.314-11.314c0.781-0.781 0.781-2.047 0-2.828s-2.047-0.781-2.828 0l-12.728 12.728zM82 14h-80v4h80v-4z">
            </path>
        </symbol>
        <symbol id="next" viewBox="0 0 82 32">
            <path
                d="M81.414 17.414c0.781-0.781 0.781-2.047 0-2.828l-12.728-12.728c-0.781-0.781-2.047-0.781-2.828 0s-0.781 2.047 0 2.828l11.314 11.314-11.314 11.314c-0.781 0.781-0.781 2.047 0 2.828s2.047 0.781 2.828 0l12.728-12.728zM0 18l80 0v-4l-80-0v4z">
            </path>
        </symbol>
        <symbol id="stars" viewBox="0 0 307 32">
            <path
                d="M17.333 0l-5.358 10.537-11.976 1.68 8.667 8.206-2.049 11.577 10.716-5.463 10.716 5.463-2.049-11.577 8.667-8.194-11.976-1.691-5.358-10.537z">
            </path>
            <path
                d="M85.333 0l-5.358 10.537-11.976 1.68 8.667 8.206-2.049 11.577 10.716-5.463 10.716 5.463-2.049-11.577 8.667-8.194-11.976-1.691-5.358-10.537z">
            </path>
            <path
                d="M153.333 0l-5.357 10.537-11.976 1.68 8.667 8.206-2.049 11.577 10.716-5.463 10.716 5.463-2.049-11.577 8.667-8.194-11.976-1.691-5.357-10.537z">
            </path>
            <path
                d="M221.333 0l-5.357 10.537-11.976 1.68 8.667 8.206-2.049 11.577 10.716-5.463 10.716 5.463-2.049-11.577 8.667-8.194-11.976-1.691-5.357-10.537z">
            </path>
            <path
                d="M289.333 0l-5.357 10.537-11.976 1.68 8.667 8.206-2.049 11.577 10.716-5.463 10.716 5.463-2.049-11.577 8.667-8.194-11.976-1.691-5.357-10.537z">
            </path>
        </symbol>
        <symbol id="menu" viewBox="0 0 32 32">
            <path
                d="M5.333 14.667h16v2.667h-16v-2.667zM5.333 8h21.333v2.667h-21.333v-2.667zM5.333 24h9.647v-2.667h-9.647v2.667z">
            </path>
        </symbol>
        <symbol id="vk" viewBox="0 0 59 32">
            <path fill="#fff" style="fill: var(--color1, #fff)" opacity="0.6"
                d="M59.113 28.899c-0.072-0.146-0.139-0.268-0.201-0.365-1.031-1.752-3.001-3.904-5.91-6.454l-0.062-0.058-0.031-0.029-0.031-0.029h-0.031c-1.32-1.188-2.156-1.986-2.506-2.395-0.641-0.779-0.784-1.567-0.434-2.366 0.247-0.603 1.176-1.878 2.785-3.825 0.846-1.032 1.516-1.859 2.011-2.482 3.569-4.478 5.116-7.339 4.641-8.585l-0.184-0.291c-0.124-0.175-0.444-0.336-0.959-0.482-0.516-0.146-1.176-0.17-1.981-0.073l-8.911 0.058c-0.144-0.048-0.35-0.044-0.619 0.015s-0.402 0.088-0.402 0.088l-0.155 0.073-0.123 0.088c-0.103 0.058-0.216 0.16-0.34 0.306s-0.226 0.316-0.309 0.511c-0.97 2.356-2.073 4.546-3.311 6.57-0.763 1.207-1.464 2.253-2.104 3.139s-1.176 1.538-1.608 1.956c-0.434 0.419-0.825 0.754-1.176 1.007s-0.618 0.361-0.804 0.321c-0.186-0.039-0.361-0.078-0.527-0.117-0.289-0.175-0.521-0.414-0.696-0.715s-0.294-0.681-0.356-1.139c-0.062-0.458-0.098-0.852-0.108-1.183s-0.005-0.798 0.016-1.402c0.022-0.604 0.031-1.012 0.031-1.226 0-0.74 0.015-1.543 0.046-2.409s0.056-1.553 0.078-2.058c0.021-0.506 0.031-1.042 0.031-1.606s-0.036-1.007-0.108-1.329c-0.071-0.321-0.18-0.632-0.324-0.935s-0.356-0.535-0.634-0.701c-0.278-0.165-0.624-0.297-1.036-0.394-1.093-0.234-2.486-0.36-4.178-0.379-3.837-0.039-6.302 0.195-7.395 0.701-0.433 0.214-0.825 0.506-1.176 0.876-0.371 0.428-0.423 0.662-0.155 0.701 1.238 0.175 2.114 0.594 2.63 1.256l0.186 0.351c0.145 0.253 0.289 0.701 0.433 1.343s0.237 1.353 0.278 2.131c0.103 1.421 0.103 2.638 0 3.65s-0.201 1.801-0.294 2.365c-0.093 0.565-0.232 1.022-0.418 1.372s-0.309 0.565-0.372 0.642c-0.062 0.078-0.113 0.127-0.154 0.146-0.268 0.097-0.547 0.146-0.836 0.146s-0.64-0.136-1.052-0.409c-0.412-0.273-0.84-0.647-1.284-1.124s-0.944-1.144-1.501-2c-0.557-0.857-1.134-1.869-1.733-3.037l-0.495-0.847c-0.309-0.545-0.732-1.338-1.268-2.38s-1.011-2.049-1.423-3.023c-0.165-0.409-0.412-0.72-0.742-0.934l-0.155-0.088c-0.103-0.078-0.268-0.16-0.495-0.248s-0.464-0.151-0.712-0.19l-8.478 0.058c-0.866 0-1.454 0.185-1.764 0.555l-0.124 0.175c-0.062 0.097-0.093 0.253-0.093 0.467s0.062 0.477 0.186 0.788c1.238 2.745 2.584 5.393 4.038 7.943s2.718 4.605 3.79 6.161c1.073 1.558 2.166 3.028 3.28 4.41s1.851 2.268 2.212 2.657c0.361 0.39 0.645 0.681 0.851 0.876l0.774 0.701c0.495 0.467 1.222 1.027 2.181 1.679s2.022 1.295 3.187 1.928c1.166 0.632 2.522 1.148 4.069 1.547s3.053 0.56 4.517 0.482h3.558c0.722-0.059 1.269-0.273 1.64-0.642l0.123-0.146c0.083-0.116 0.16-0.297 0.232-0.539s0.108-0.512 0.108-0.803c-0.021-0.837 0.046-1.591 0.201-2.263s0.33-1.177 0.527-1.518c0.197-0.341 0.418-0.628 0.665-0.861s0.424-0.375 0.527-0.424c0.103-0.049 0.185-0.082 0.247-0.102 0.495-0.156 1.078-0.005 1.749 0.453s1.299 1.022 1.888 1.694c0.588 0.672 1.294 1.426 2.119 2.263s1.547 1.46 2.166 1.869l0.618 0.35c0.413 0.234 0.95 0.448 1.61 0.643 0.659 0.195 1.236 0.243 1.732 0.146l7.921-0.117c0.784 0 1.393-0.122 1.826-0.365s0.691-0.512 0.773-0.803c0.083-0.292 0.087-0.623 0.016-0.993-0.073-0.369-0.146-0.628-0.218-0.774z">
            </path>
        </symbol>
        <symbol id="close" viewBox="0 0 32 32">
            <path
                d="M24 9.4l-1.4-1.4-6.6 6.6-6.6-6.6-1.4 1.4 6.6 6.6-6.6 6.6 1.4 1.4 6.6-6.6 6.6 6.6 1.4-1.4-6.6-6.6 6.6-6.6z">
            </path>
        </symbol>
    </defs>
</svg>